<svg xmlns="http://www.w3.org/2000/svg" width="25" height="24" viewBox="0 0 25 24">
  <path d="M21.875 16.4063C21.7893 16.4551 21.6948 16.4866 21.597 16.4989C21.4991 16.5112 21.3998 16.5041 21.3047 16.478C21.2097 16.4518 21.1207 16.4072 21.0428 16.3467C20.965 16.2861 20.8999 16.2108 20.8512 16.125L19.07 13.0125C18.0344 13.7127 16.892 14.2402 15.6875 14.5744L16.2378 17.8763C16.254 17.9735 16.2509 18.0729 16.2287 18.1689C16.2065 18.2649 16.1656 18.3556 16.1083 18.4358C16.051 18.516 15.9784 18.5841 15.8948 18.6363C15.8112 18.6884 15.7181 18.7236 15.6209 18.7397C15.5809 18.7462 15.5405 18.7497 15.5 18.75C15.3225 18.7498 15.1509 18.6866 15.0157 18.5718C14.8804 18.4569 14.7903 18.2979 14.7612 18.1228L14.2203 14.881C13.0795 15.0397 11.9223 15.0397 10.7815 14.881L10.2406 18.1228C10.2115 18.2982 10.121 18.4575 9.98538 18.5724C9.84974 18.6872 9.6777 18.7502 9.49995 18.75C9.4585 18.7498 9.41712 18.7464 9.3762 18.7397C9.27898 18.7236 9.1859 18.6884 9.10227 18.6363C9.01864 18.5841 8.94611 18.516 8.88882 18.4358C8.83153 18.3556 8.79061 18.2649 8.76839 18.1689C8.74617 18.0729 8.74309 17.9735 8.75933 17.8763L9.31245 14.5744C8.10835 14.2391 6.96664 13.7107 5.93183 13.0097L4.1562 16.125C4.10696 16.2108 4.04129 16.2861 3.96296 16.3465C3.88462 16.407 3.79515 16.4514 3.69965 16.4772C3.60415 16.5031 3.50449 16.5099 3.40637 16.4972C3.30825 16.4846 3.21358 16.4527 3.12776 16.4035C3.04195 16.3542 2.96668 16.2885 2.90625 16.2102C2.84582 16.1319 2.80141 16.0424 2.77555 15.9469C2.74969 15.8514 2.7429 15.7517 2.75556 15.6536C2.76822 15.5555 2.80008 15.4608 2.84933 15.375L4.72433 12.0938C4.06573 11.5248 3.46013 10.8972 2.91495 10.2188C2.84696 10.1429 2.79516 10.0539 2.7627 9.95729C2.73024 9.86069 2.7178 9.75849 2.72616 9.65693C2.73451 9.55536 2.76347 9.45657 2.81127 9.36657C2.85908 9.27657 2.92472 9.19726 3.0042 9.13347C3.08367 9.06969 3.17531 9.02277 3.27353 8.99558C3.37174 8.96839 3.47446 8.9615 3.57542 8.97533C3.67639 8.98916 3.77347 9.02342 3.86075 9.07602C3.94804 9.12862 4.02368 9.19846 4.08308 9.28127C5.63933 11.2069 8.36183 13.5 12.5 13.5C16.6381 13.5 19.3606 11.2041 20.9168 9.28127C20.9755 9.19676 21.051 9.12525 21.1386 9.07117C21.2261 9.01708 21.3238 8.9816 21.4257 8.96691C21.5275 8.95222 21.6313 8.95865 21.7306 8.98579C21.8298 9.01293 21.9224 9.06021 22.0026 9.12468C22.0828 9.18915 22.1489 9.26943 22.1968 9.36054C22.2446 9.45164 22.2732 9.55161 22.2807 9.65423C22.2883 9.75686 22.2746 9.85993 22.2406 9.95706C22.2066 10.0542 22.153 10.1433 22.0831 10.2188C21.5379 10.8972 20.9323 11.5248 20.2737 12.0938L22.1487 15.375C22.199 15.4606 22.2319 15.5552 22.2454 15.6535C22.2588 15.7519 22.2527 15.8519 22.2272 15.9478C22.2017 16.0437 22.1575 16.1337 22.097 16.2123C22.0366 16.291 21.9611 16.357 21.875 16.4063Z" fill="white"/>
</svg>