<svg xmlns="http://www.w3.org/2000/svg"  viewBox="0 0 31 30" fill="none">
  <g clip-path="url(#clip0_1142_1456)">
    <path d="M27.1667 4.16663H3.83333C2.94928 4.16663 2.10143 4.51782 1.47631 5.14294C0.85119 5.76806 0.5 6.6159 0.5 7.49996L0.5 15H30.5V7.49996C30.5 6.6159 30.1488 5.76806 29.5237 5.14294C28.8986 4.51782 28.0507 4.16663 27.1667 4.16663Z" fill="#005BBB"/>
    <path d="M30.5 22.5C30.5 23.3841 30.1488 24.2319 29.5237 24.857C28.8986 25.4821 28.0507 25.8333 27.1667 25.8333H3.83333C2.94928 25.8333 2.10143 25.4821 1.47631 24.857C0.85119 24.2319 0.5 23.3841 0.5 22.5V15H30.5V22.5Z" fill="#FFD500"/>
  </g>
  <defs>
    <clipPath id="clip0_1142_1456">
      <rect width="30" height="30" fill="white" transform="translate(0.5)"/>
    </clipPath>
  </defs>
</svg>