<svg xmlns="http://www.w3.org/2000/svg" width="65" height="64" fill="none"><path fill="#204FFE" d="M32.316 5.488a4 4 0 0 1 5.656-.6L51.02 15.544a4 4 0 0 1 1 4.98A12.003 12.003 0 0 0 48.5 20h-1.2l1.192-1.36-6.872-5.612-5.668 6.976h-5.156L38.52 10.5l-3.08-2.516L25.848 20h-5.12L32.316 5.488ZM42.5 40a2 2 0 0 0 0 4h4a2 2 0 0 0 0-4h-4Zm-30-18a2 2 0 0 1 2-2h2.232l3.18-4H14.5a6 6 0 0 0-6 6v24a10 10 0 0 0 10 10h30a8 8 0 0 0 8-8V32a8 8 0 0 0-8-8h-34a2 2 0 0 1-2-2Zm0 24V27.66c.624.22 1.3.34 2 .34h34a4 4 0 0 1 4 4v16a4 4 0 0 1-4 4h-30a6 6 0 0 1-6-6Z"/></svg>